# xmcd CD database file
#
# Track frame offsets:
#	187
#	23547
#	40932
#	65972
#	93750
#	112125
#	131092
#	158107
#	187545
#	211435
#	240787
#	262972
#	283417
#
# Disc length: 4066 seconds
#
# Revision: 0
# Processed by: cddbd v1.4PL0 Copyright (c) Steve Scherf et al.
# Submitted via: CDex 1.50
#
DISCID=b00fe00d
DTITLE=Tim Laughlin - New Orleans Rhythm
DYEAR=1993
DGENRE=Jazz
TTITLE0=Farewell Blues
TTITLE1=Petite Fleur
TTITLE2=Mama's (Papa's) Gone Goodbye
TTITLE3=Avalon
TTITLE4=Jitterbug Waltz
TTITLE5=Caravan
TTITLE6=Dr. Jazz
TTITLE7=Memphis Blues
TTITLE8=Si Tu Vois Ma Mere
TTITLE9=St. Louis Blues
TTITLE10=Just a Closer Walk with Thee
TTITLE11=Sweet Substitute
TTITLE12=China Boy
EXTD=YEAR: 1993
EXTT0=
EXTT1=
EXTT2=
EXTT3=
EXTT4=
EXTT5=
EXTT6=
EXTT7=
EXTT8=
EXTT9=
EXTT10=
EXTT11=
EXTT12=
PLAYORDER=
